<svg width="273" height="306" viewBox="0 0 273 306" fill="none" xmlns="http://www.w3.org/2000/svg">
<path fill-rule="evenodd" clip-rule="evenodd" d="M223.263 339.334C228.111 339.1 226.161 330.633 225.813 327.523C221.974 316.165 222.877 303.772 221.367 291.867C220.427 280.753 219.218 269.674 218.201 258.569C216.205 236.027 201.868 190.136 185.507 182.756C183.446 173.726 174.933 165.298 164.163 165.298C156.817 156.616 147.975 150.506 136.635 151.74C131.948 151.953 127.403 156.916 122.913 157.874C120.399 158.22 98.0852 157.329 93.6156 159.98C90.5021 161.576 87.6915 164.525 88.607 168.28C90.0676 172.83 85.5284 167.907 76.0594 172.763C56.7509 184.341 68.2889 199.831 68.8002 200.31C56.7509 217.049 46.2192 230.629 41.3464 251.088C38.1883 266.277 38.5438 281.958 35.8978 297.225C34.9635 302.519 33.5302 307.631 31.9793 312.772C30.2984 319.5 29.481 336.269 28.5545 336.419C26.8669 336.837 29.5299 340.297 31.3182 340.3C80.8982 348.511 131.259 340.64 181.106 339.354C195.153 338.866 209.216 338.754 223.263 339.334Z" fill="#F8FAFF"/>
<path fill-rule="evenodd" clip-rule="evenodd" d="M148.116 201.788C148.14 201.561 148.446 201.562 148.469 201.788L148.819 205.162C149.245 209.282 149.655 213.395 149.952 217.535C150.323 222.697 150.571 227.858 150.69 233.032C151.107 251.051 151.189 269.08 151.225 287.104C153.666 286.935 156.107 286.773 158.55 286.616C160.208 286.509 161.865 286.406 163.523 286.305L167.749 286.049V286.049L169.489 285.943C170.665 285.87 172.001 285.575 172.823 286.615C173.153 287.031 173.318 287.572 173.011 288.066C172.303 289.206 171.216 289.166 169.986 289.216C168.826 289.263 167.666 289.308 166.506 289.353C164.02 289.449 161.535 289.54 159.048 289.61C156.438 289.683 153.83 289.742 151.221 289.787C151.195 297.396 150.879 304.995 150.538 312.596L150.384 316.016C149.967 325.266 149.518 334.523 148.881 343.761C148.828 344.517 147.757 344.515 147.705 343.761C146.987 333.358 146.513 322.933 146.043 312.517C145.703 304.964 145.505 297.41 145.41 289.854C145.065 289.856 144.721 289.861 144.376 289.862C134.585 289.905 124.796 289.948 115.005 289.856C115.021 289.875 115.037 289.894 115.048 289.92C115.757 291.59 115.824 293.721 115.807 295.513C115.787 297.569 115.51 299.599 115.036 301.598C113.337 308.759 108.955 315.173 103.964 320.476L103.801 320.649C102.624 321.89 101.274 323.138 100.551 324.72C99.8127 326.335 99.5565 328.224 99.1922 329.96L99.1496 330.159L97.7251 336.729C97.2725 338.815 97.1441 341.858 95.4898 343.364C93.9464 344.769 91.9017 344.035 91.1754 342.226C90.6081 340.815 91.1731 339.265 91.509 337.854L94.1411 326.807C94.5735 325.006 95.0461 323.193 95.9795 321.574C96.9356 319.917 98.3373 318.715 99.7675 317.486C102.476 315.158 104.962 312.493 107.065 309.607C109.167 306.722 110.963 303.543 112.222 300.199C112.853 298.525 113.37 296.786 113.727 295.034C114.065 293.37 114.062 291.647 114.425 290.001C114.45 289.888 114.546 289.81 114.656 289.775C114.63 289.702 114.67 289.603 114.773 289.596L122.78 289.082C129.898 288.624 137.016 288.154 144.127 287.617L145.384 287.526V287.526C145.286 277.445 145.369 267.362 145.551 257.277C145.719 248.029 145.722 238.779 145.998 229.533C146.134 224.943 146.43 220.365 146.758 215.785C147.095 211.102 147.633 206.458 148.116 201.788ZM72.9296 255.409C72.8443 254.895 73.4913 254.577 73.7896 255.047C77.1993 260.413 78.8434 266.242 79.5363 272.521C80.1484 278.063 79.9681 283.685 79.6632 289.242C79.3381 295.168 78.9588 301.093 78.5752 307.017L77.9858 316.1V316.1L76.5069 338.872C76.401 340.501 76.0307 341.982 74.6261 342.739C74.4482 342.888 74.2628 343.021 74.0468 343.136C73.2879 343.541 72.2813 343.336 71.8425 342.559L72.0185 342.674C72.1717 342.771 71.9996 342.636 71.5021 342.271L71.0799 341.726V341.726C70.773 341.265 70.5771 340.813 70.4983 340.265C70.3759 339.415 70.5345 338.482 70.5901 337.627L71.5596 322.695V322.695C72.3134 311.087 73.1938 299.482 73.8574 287.867C74.1664 282.454 74.383 277.036 74.2364 271.613C74.0904 266.221 73.8152 260.737 72.9296 255.409ZM102.427 155.45L102.616 155.418C109.388 154.295 116.753 154.505 122.942 157.765C122.993 157.792 122.97 157.876 122.913 157.874L120.92 157.795C114.614 157.548 108.326 157.402 102.125 158.881L101.49 159.034C99.2568 159.578 96.9247 160.244 95.1309 161.716C93.4164 163.124 92.5626 165.296 91.7417 167.295L91.632 167.559C90.7991 169.533 89.7449 171.406 87.9193 172.64C85.5548 174.239 82.7111 174.043 79.9998 174.26C75.226 174.643 71.3231 178.098 69.3813 182.325C68.2054 184.884 67.7039 187.754 67.6045 190.553C67.5536 191.978 67.5463 193.458 67.7365 194.874C67.7972 195.327 68.3577 196.976 68.6434 196.936C69.2784 196.848 69.859 197.179 70.0569 197.685C71.6254 196.173 73.2391 194.703 74.9047 193.287C79.0565 189.756 83.5284 186.557 88.2379 183.808C91.8323 181.709 95.6236 179.63 99.5496 178.058C99.2385 178.052 98.9317 178.113 98.6349 178.267C98.505 178.335 98.3758 178.172 98.4784 178.065C99.715 176.766 101.196 176.581 102.689 176.927C103.008 176.826 103.327 176.728 103.647 176.635C103.806 176.589 103.886 176.808 103.756 176.893L103.389 177.127V177.127C105.018 177.671 106.617 178.742 107.883 179.587C111.521 182.014 114.722 184.981 117.968 187.893L118.558 188.421C121.414 190.967 124.344 193.442 127.589 195.485C129.288 196.555 131.073 197.544 132.945 198.279C134.55 198.911 137.164 199.308 137.916 201.002C138.584 201.813 138.305 202.848 137.522 203.393C136.202 204.844 133.561 203.907 131.988 203.302C130.092 202.574 128.255 201.699 126.502 200.672C123.101 198.678 119.964 196.199 117.043 193.562C113.991 190.807 111.113 187.881 108.145 185.041C106.859 183.81 105.603 182.55 104.315 181.321L103.668 180.709C103.011 180.094 102.074 179.134 101.073 178.554C99.1864 179.677 97.2709 180.754 95.4016 181.907C92.7922 183.515 90.2595 185.24 87.766 187.021C82.9657 190.451 78.4167 194.292 74.1937 198.409C66.4485 205.959 59.8498 214.581 54.0854 223.71L53.6476 224.406C50.3719 229.631 47.2742 235.025 45.0777 240.799C42.661 247.153 41.4856 253.834 40.8471 260.579C40.2134 267.275 39.9997 274.005 39.2914 280.694C38.5651 287.556 37.1341 294.265 35.5064 300.962L35.1182 302.55C33.6454 308.548 32.1252 314.546 31.3681 320.685C30.964 323.964 30.7209 327.289 30.7758 330.595C30.831 333.92 31.3543 337.171 31.7766 340.462C31.9384 341.722 30.696 342.774 29.5844 342.941C28.3059 343.133 27.2075 342.318 26.8101 341.133C25.5713 337.436 25.3463 333.35 25.3851 329.47C25.4243 325.531 25.9278 321.618 26.6363 317.747C28.0297 310.133 30.18 302.676 31.9788 295.153C33.5641 288.522 34.6281 281.879 35.2016 275.086C35.7969 268.038 36.1534 260.967 37.2395 253.97C38.3115 247.063 40.3286 240.465 43.3705 234.166C46.1402 228.432 49.5928 223.034 53.2125 217.802C57.6082 211.449 62.4359 205.403 67.8323 199.895C67.3476 199.874 66.8499 199.717 66.3928 199.433C64.9944 198.562 64.3431 196.858 64.1429 195.303C63.6742 191.664 63.7874 187.865 64.7247 184.307C66.2367 178.568 70.161 173.469 75.8485 171.4C77.3124 170.867 78.8686 170.673 80.42 170.635C81.8922 170.598 83.5001 170.79 84.9206 170.324C87.1816 169.582 88.1507 166.923 88.9997 164.908L89.0388 164.815C90.1273 162.247 91.4339 160.045 93.7917 158.442C96.3072 156.731 99.4589 155.952 102.427 155.45V155.45ZM166.777 165.607C168.812 164.902 171.356 165.542 173.347 166.157C175.564 166.844 177.613 168.108 179.37 169.609C181.223 171.192 182.754 173.147 183.837 175.33L183.94 175.541C184.928 177.567 186.054 180.347 185.556 182.573C185.541 182.636 185.525 182.697 185.506 182.756C189.544 184.74 193.273 187.226 196.521 190.377C200.302 194.045 203.504 198.22 206.213 202.729C216.974 220.641 218.869 242.153 220.139 262.58L220.456 267.76C221.147 278.944 221.954 290.101 224.052 301.131L224.205 301.927C226.448 313.476 229.658 325.112 229.333 336.959C229.235 340.508 223.981 340.484 223.829 336.959C223.255 323.689 220.154 310.878 218.054 297.816C214.359 274.836 216.21 251.145 210.974 228.395C208.92 219.467 205.737 210.807 201.191 202.837C198.946 198.9 196.378 195.096 193.368 191.7C190.78 188.777 188.089 185.965 185.064 183.508C184.097 184.475 182.165 183.982 181.66 182.573C181.314 181.604 181.415 180.472 181.192 179.457C180.986 178.515 180.701 177.582 180.322 176.695C179.566 174.928 178.456 173.231 177.174 171.801C175.79 170.255 174.199 168.97 172.419 167.909C170.627 166.842 168.667 166.523 166.777 165.742C166.713 165.716 166.707 165.631 166.777 165.607ZM174.684 288.42C174.687 288.327 174.797 288.283 174.865 288.345C175.578 289.001 176.01 289.942 176.535 290.748C177.14 291.678 177.776 292.589 178.443 293.476C179.779 295.253 181.267 296.929 182.766 298.57C184.16 300.097 185.647 301.559 187.188 302.937C188.859 304.431 190.73 305.763 192.248 307.417C195.415 310.867 195.926 315.604 196.594 320.051L196.668 320.532C197.075 323.171 197.44 325.817 197.769 328.467C197.929 329.756 198.089 331.046 198.219 332.338L198.259 332.748C198.375 334.013 198.407 335.296 197.679 336.402C196.9 337.584 195.129 337.999 194.076 336.865C192.267 334.917 192.606 331.457 192.371 328.95C192.177 326.878 191.956 324.808 191.709 322.742L191.583 321.709C191.292 319.357 191.056 316.96 190.517 314.649C190.043 312.615 189.138 311.079 187.653 309.605C186.157 308.121 184.603 306.735 183.222 305.136C181.758 303.44 180.437 301.622 179.247 299.724C178.229 298.101 177.413 296.335 176.665 294.57L176.541 294.276C175.819 292.556 174.627 290.316 174.684 288.42ZM200.803 214.515C200.819 214.275 201.175 214.271 201.18 214.515C201.225 216.579 201.268 218.643 201.311 220.707C201.656 237.34 201.443 254.012 203.115 270.588C203.903 278.404 205.354 286.104 207.034 293.773C207.894 297.697 208.795 301.611 209.652 305.536C210.487 309.361 211.382 313.204 212.045 317.064C212.696 320.858 213.278 324.681 213.54 328.524L213.572 329.025C213.685 330.887 214.223 333.625 213.196 335.275C212.084 337.062 209.954 337.094 208.762 335.388C207.643 333.786 207.921 330.936 207.723 329.025C207.522 327.078 207.31 325.13 207.068 323.187C206.598 319.398 205.977 315.618 205.332 311.854C203.988 304.017 202.039 296.278 200.6 288.453C199.125 280.436 198.077 272.36 198.033 264.197C197.989 255.964 198.862 247.747 199.302 239.532C199.75 231.189 200.259 222.852 200.803 214.515ZM122.107 162.78C122.554 161.277 124.133 160.337 125.673 160.759C127.084 161.146 128.249 162.856 127.698 164.319C127.095 165.916 126.043 167.277 125.156 168.728C124.337 170.069 123.142 171.125 122.307 172.442L123.227 173.432C123.687 173.926 124.148 174.417 124.615 174.9L126.219 176.559C127.469 177.848 128.726 179.131 130.019 180.375C133.82 184.036 137.682 187.577 141.939 190.712C142.908 191.426 143.885 192.135 144.889 192.799L145.263 193.047C145.952 193.497 146.72 193.94 147.552 193.864C149.574 193.678 151.401 191.534 152.791 190.2L152.864 190.13C156.307 186.859 159.495 183.283 162.283 179.437C162.902 178.583 163.501 177.714 164.085 176.835C162.737 175.263 163.059 172.194 162.985 170.288C162.932 168.948 162.928 167.607 162.921 166.266L162.917 165.995C162.901 165.127 162.862 164.295 163.426 163.58C163.459 163.539 163.527 163.54 163.569 163.562C164.342 163.966 164.58 164.643 164.909 165.403L164.944 165.482C165.345 166.393 165.73 167.313 166.119 168.23C166.526 169.19 166.899 170.164 167.277 171.135C167.454 171.587 167.622 172.041 167.786 172.497C167.886 172.788 167.99 173.078 168.096 173.367L168.121 173.39C168.262 173.509 168.381 173.634 168.483 173.764C168.915 173.979 169.257 174.372 169.418 174.949C169.768 176.204 169.044 177.227 168.398 178.224C165.774 182.271 162.782 186.129 159.457 189.628C157.805 191.366 156.068 193.026 154.259 194.601L153.943 194.875C152.318 196.269 150.554 197.59 148.384 197.916C145.844 198.297 143.777 197.036 141.833 195.584L141.639 195.438C139.796 194.045 137.99 192.603 136.241 191.095C132.673 188.02 129.28 184.718 126.268 181.096C123.338 177.572 120.442 173.633 118.636 169.393C118.526 169.135 118.816 168.865 119.043 169.08C119.925 169.919 120.773 170.803 121.612 171.698C121.636 170.38 121.392 169.051 121.527 167.725C121.693 166.113 121.645 164.332 122.107 162.78Z" fill="#2D3958"/>
<path fill-rule="evenodd" clip-rule="evenodd" d="M142.051 63.689C156.296 63.689 171.031 74.7135 176.252 81.7485C182.29 89.8832 187.053 128.934 184.819 142.184C182.584 155.435 171.486 169.877 152.218 169.877C132.951 169.877 121.226 167.508 120.755 164.066C120.285 160.625 108.047 141.467 108.047 141.467C108.047 141.467 95.5309 137.952 95.482 129.556C95.4331 121.16 102.189 118.105 102.189 118.105C102.189 118.105 99.7803 84.9708 105.847 76.3442C111.914 67.7175 127.806 63.689 142.051 63.689Z" fill="#FFCFC0"/>
<path fill-rule="evenodd" clip-rule="evenodd" d="M134.798 60.3682L135.052 60.3693C150.813 60.471 166.844 67.7123 176.221 80.362L176.503 80.747C176.518 80.7671 176.799 81.1841 176.865 81.3029C177.023 81.5857 177.192 81.861 177.361 82.1357C177.608 82.5377 177.854 82.9385 178.063 83.3592C178.299 83.8387 178.472 84.3631 178.644 84.8807C178.687 85.0119 178.73 85.1427 178.774 85.2722L178.84 85.4633C179.4 87.0614 179.871 88.6746 180.288 90.3153C181.096 93.509 181.725 96.7528 182.338 99.9892C184.526 111.578 185.956 123.332 186.677 135.102L186.819 137.468C186.965 139.923 187.075 142.388 186.799 144.834C186.48 147.682 185.66 150.355 184.418 152.935C183.273 155.315 181.798 157.519 180.11 159.545C179.207 160.63 178.249 161.685 177.069 162.478C176.132 163.109 175.036 163.525 173.981 163.926L173.981 163.926L173.978 163.927C172.26 165.64 170.055 166.935 167.9 167.969C164.347 169.67 160.496 170.61 156.6 171.081C152.616 171.559 148.592 171.444 144.641 170.76C140.865 170.109 136.818 168.443 134.493 165.269C134.292 164.996 134.665 164.738 134.911 164.851C141.66 167.969 149.244 168.784 156.6 167.799C160.032 167.341 163.409 166.394 166.542 164.923C168.55 163.982 170.319 162.716 172.092 161.446C172.655 161.043 173.219 160.64 173.79 160.247C174.252 159.633 174.718 159.029 175.251 158.468L176.081 157.599C176.701 156.946 177.31 156.285 177.864 155.57C179.576 153.368 180.993 150.871 181.929 148.243C183.632 143.457 183.311 138.288 182.999 133.275C182.977 132.931 182.956 132.588 182.935 132.246L182.907 131.776C182.576 126.075 182.037 120.394 181.289 114.733C180.541 109.064 179.591 103.418 178.467 97.8124C178.199 96.4799 177.916 95.1514 177.633 93.823C177.329 92.3972 177.025 90.9716 176.741 89.5413C176.506 88.3624 176.33 87.1698 176.154 85.9777C176.117 85.7285 176.081 85.4794 176.043 85.2303C175.917 84.3853 175.915 83.5705 175.913 82.7455L175.913 82.6528C175.889 82.6916 175.859 82.728 175.83 82.7644L175.827 82.768C175.918 82.9809 175.855 83.254 175.634 83.3792C174.969 83.758 174.223 83.7338 173.472 83.7094C173.28 83.7031 173.087 83.6968 172.895 83.6973C171.896 83.7024 170.897 83.7049 169.899 83.7074C168.859 83.7111 167.819 83.7111 166.779 83.7096L151.181 83.6648C149.207 83.6589 147.225 83.6733 145.239 83.6878C139.003 83.7332 132.73 83.779 126.552 83.1956C123.5 84.0005 121.235 87.0005 122.388 90.5005C122.722 90.9507 123.115 91.4452 123.516 91.9486C124.45 93.1225 125.423 94.3454 125.772 95.171L125.787 95.2048C125.815 95.2689 125.845 95.3338 125.875 95.3992C126.112 95.9144 126.367 96.47 126.196 97.0434C125.869 98.1385 124.463 99.0155 123.319 99.7287C122.972 99.9453 122.649 100.147 122.388 100.335L121.235 101.166L119.727 102.255C119.109 102.697 118.538 103.035 117.728 102.782C117.726 102.78 117.724 102.78 117.721 102.78C118.295 105.438 118.624 113.014 118.778 116.572C118.81 117.31 118.835 117.875 118.853 118.187C118.873 118.541 118.912 118.918 118.952 119.305C119.091 120.651 119.243 122.127 118.667 123.25C118.491 123.593 118.035 123.863 117.646 123.836C115.95 123.708 114.254 123.583 112.558 123.457C112.104 123.422 111.69 123.164 111.564 122.704L111.559 122.678C111.504 122.694 111.442 122.683 111.389 122.628C111.296 122.536 111.201 122.446 111.103 122.358C108.87 120.369 105.378 119.878 102.623 120.913C101.178 121.454 99.5349 122.365 98.516 123.548C97.3846 124.86 97.1415 126.694 97.1387 128.37C97.1337 131.601 98.303 134.872 100.689 137.114C102.881 139.172 105.709 139.771 108.555 140.36L108.86 140.423C109.51 140.558 109.716 141.525 109.226 141.931C110.336 143.016 111.317 144.279 112.261 145.496C112.425 145.706 112.587 145.915 112.749 146.122C114.204 147.979 115.597 149.911 116.951 151.846L117.605 152.782C117.685 152.896 117.766 153.011 117.848 153.128C120.16 156.415 123.257 160.817 121.841 164.826C121.645 165.384 120.827 165.585 120.508 164.999C119.953 163.976 119.528 162.898 119.103 161.82C118.727 160.866 118.351 159.911 117.884 158.994C116.936 157.135 115.763 155.408 114.592 153.685L114.49 153.534L113.795 152.506C112.638 150.79 111.492 149.055 110.43 147.287L109.691 146.062C108.996 144.906 108.308 143.712 107.796 142.47C104.372 143.294 100.649 141.46 98.2426 139.018C95.2172 135.942 93.7947 131.411 94.1858 127.15C94.3918 124.92 95.0516 122.764 96.6871 121.161C96.8527 121 97.0261 120.847 97.2042 120.695C97.1415 120.662 97.0888 120.612 97.0634 120.552C95.9671 117.952 95.7338 114.853 95.6409 112.053C95.5434 109.157 95.6061 106.254 95.8266 103.363C96.2308 98.0629 97.1889 92.7901 98.7095 87.6951C100.96 80.1654 104.826 72.7935 111.003 67.7412C117.589 62.3525 126.414 60.3542 134.798 60.3682ZM105.221 127.035C104.392 126.557 102.941 125.806 102.011 126.228C101.572 126.428 101.216 126.826 101.599 127.237C101.695 127.342 101.883 127.262 101.88 127.122L101.882 127.101C101.939 126.749 103.927 128.118 104.113 128.252L104.277 128.384C104.427 128.507 104.573 128.635 104.718 128.765C103.702 128.825 102.754 129.294 102.686 130.468C102.643 131.18 103.28 131.611 103.903 131.683C104.495 131.754 104.844 131.441 105.21 131.114C105.364 130.977 105.52 130.837 105.699 130.721C105.857 130.621 106.032 130.544 106.213 130.483C106.973 131.638 107.435 132.931 107.636 134.311C107.881 136.004 110.784 135.315 110.267 133.587C109.462 130.907 107.721 128.487 105.275 127.067L105.221 127.035Z" fill="#2D3958"/>
<path fill-rule="evenodd" clip-rule="evenodd" d="M157.993 152.029C156.307 151.342 154.802 150.196 153.702 148.732C153.319 148.223 153.22 147.686 153.3 147.194C153.39 146.642 153.718 146.141 154.164 145.805C154.612 145.468 155.173 145.302 155.714 145.386C156.185 145.46 156.654 145.717 157.025 146.251L157.102 146.358C157.756 147.241 158.608 147.966 159.58 148.433C160.516 148.884 161.562 149.094 162.646 148.972C164.709 148.739 166.131 147.625 167.642 146.112C167.83 145.921 168.017 145.724 168.206 145.524C168.325 145.342 168.49 145.226 168.673 145.165C168.877 145.097 169.107 145.101 169.318 145.174C169.521 145.245 169.703 145.379 169.825 145.558C169.941 145.728 170.006 145.938 169.985 146.179C169.847 147.747 169.026 149.146 167.86 150.245C166.564 151.465 164.848 152.309 163.231 152.605C161.451 152.931 159.636 152.698 157.993 152.029V152.029ZM164.072 127.841C165.966 128.991 168.853 131.672 166.815 134.523C164.416 137.036 160.962 134.154 159.26 132.851C157.681 131.841 155.908 134.439 157.373 135.618C169.672 144.71 174.663 128.142 165.03 126.49C163.969 126.308 163.575 127.486 164.072 127.841ZM142.031 117.266C142.241 114.672 146.198 114.082 146.591 116.649C146.944 118.949 146.529 121.061 145.491 123.132C144.5 125.109 142.009 124.187 141.82 122.386C141.568 119.971 141.901 118.879 142.031 117.266ZM172.153 116.117C172.705 115.396 173.502 114.903 174.456 115.182C177.438 116.052 176.559 120.278 175.512 122.335C174.943 123.453 173.103 123.736 172.272 122.752C170.917 121.148 170.269 117.945 171.991 116.364C172.038 116.283 172.09 116.2 172.153 116.117ZM145.449 105.915L145.92 105.832C147.378 105.581 149.189 105.339 150.22 106.508C150.767 107.129 150.955 108.281 150.22 108.875C148.927 109.92 147.498 109.515 145.949 109.603C144.673 109.676 143.446 109.887 142.217 110.238C139.519 111.008 137.321 112.413 135.017 113.956C134.715 114.159 134.406 113.773 134.551 113.49C135.881 110.889 138.458 108.753 141.04 107.451C142.417 106.756 143.925 106.179 145.449 105.915ZM169.435 104.749L169.796 104.823C173.719 105.642 178.816 107.277 180.673 111.125C180.744 111.669 180.669 111.785 180.609 111.862L180.588 111.887C180.538 111.952 180.498 112.042 180.262 112.116C180.197 112.1 180.13 112.084 180.063 112.066C179.212 111.843 178.538 111.536 177.886 111.218L177.179 110.87C176.358 110.468 175.53 110.081 174.653 109.795C172.781 109.186 170.855 108.756 168.9 108.527C168.476 108.477 168.068 108.334 167.746 108.09C167.44 107.857 167.207 107.536 167.1 107.108C166.963 106.555 167.002 106.136 167.3 105.637C167.523 105.262 167.843 105.002 168.21 104.853C168.585 104.701 169.011 104.665 169.435 104.749Z" fill="#2D3958"/>
<path fill-rule="evenodd" clip-rule="evenodd" d="M141.721 153.598C143.752 148.847 148.185 145.355 153.289 144.079C157.038 143.144 160.971 143.174 164.792 143.545C166.794 143.738 168.941 143.896 170.828 144.638C172.439 145.272 173.752 146.471 174.739 147.878C175.914 149.545 176.713 151.454 177.274 153.409C177.354 153.688 177.429 153.968 177.499 154.249C177.255 155.725 176.737 156.981 175.368 157.909C174.032 158.815 172.438 159.185 170.849 159.317C170.693 159.242 170.542 159.166 170.404 159.087C167.928 157.672 166.185 154.327 163.06 154.78C160.271 155.184 158.435 158.688 156.776 160.742C151.452 161.362 146.132 159.764 141.8 156.725C141.58 155.684 141.567 154.635 141.721 153.598M181.117 149.994C180.691 148.801 180.155 147.645 179.519 146.556C177.417 142.956 174.19 140.087 170.359 138.447C161.297 134.573 149.571 137.304 142.253 143.657C139.753 145.83 137.225 149.021 136.46 152.455C136.232 152.5 136.017 152.619 135.839 152.786C130.552 149.462 125.107 146.264 120.846 141.656C117.751 138.309 115.599 134.347 114.281 129.994C114.174 129.635 113.595 129.688 113.612 130.084C113.617 130.177 113.622 130.27 113.627 130.362C113.572 130.192 113.312 130.28 113.292 130.445C112.583 135.734 111.696 141.34 112.513 146.657C113.001 149.829 114.444 152.151 116.373 154.658C118.44 157.346 120.781 159.846 123.173 162.244C124.692 163.766 126.278 165.521 128.137 166.637C130.299 167.933 132.752 168.919 135.059 169.919C137.407 170.94 139.79 171.883 142.217 172.7C147.071 174.34 152.087 175.474 157.19 175.97C161.277 176.366 165.947 176.798 169.863 175.263C172.864 174.087 175.287 171.961 177.209 169.403C179.301 166.617 180.955 163.443 181.869 160.097C182.819 156.621 181.317 150.555 181.117 149.994" fill="#2D3958"/>
<path d="M122 172.5C121.2 172.1 120.333 166.5 122 165C123 165.333 129.5 168.5 131.5 168.5C146.5 174.5 160.5 177 164 176.193C164.104 176.694 164.118 176.897 164 177C160.677 182.454 151.382 193.03 147.5 194C143.355 195.035 123 173 122 172.5Z" fill="#FFCFC0"/>
</svg>
