<svg width="302" height="335" viewBox="0 0 302 335" fill="none" xmlns="http://www.w3.org/2000/svg">
<mask id="mask0" mask-type="alpha" maskUnits="userSpaceOnUse" x="-192" y="8" width="475" height="464">
<path d="M-39.0856 123.72C-40.6109 100.778 -27.0459 79.245 -5.29428 71.7934C5.71238 68.0228 15.6968 64.953 24.613 62.7887C69.0435 52.0038 150.936 86.9621 173.363 126.804V126.804C178.492 135.914 183.795 144.615 192.082 150.987C194.221 152.632 196.327 154.234 198.397 155.796C253.016 196.995 255.497 337.441 194.632 368.683V368.683C155.711 386.362 129.197 390.839 102.096 375.216C76.2841 360.336 41.5242 360.201 25.6494 385.413V385.413C7.21933 414.684 -36.3276 411.851 -50.81 380.439L-64.0858 351.644C-69.058 340.86 -77.0807 331.768 -87.1627 325.492L-115.214 308.031C-141.611 291.6 -150.756 255.535 -129.447 232.892C-127.882 231.229 -126.328 229.652 -124.783 228.159C-94.0745 198.486 -36.2527 166.329 -39.0856 123.72V123.72Z" fill="#2D3958"/>
</mask>
<g mask="url(#mask0)">
<path d="M119.218 239.628C121.973 240.982 119.742 244.724 116.976 243.385C116.833 243.316 116.687 243.241 116.54 243.16C116.483 243.129 116.427 243.098 116.373 243.066C113.699 241.502 116.57 238.032 119.218 239.628V239.628V239.628Z" fill="#2D3958"/>
<path d="M111.531 109.257C113.661 112.052 111.483 117.073 108.03 117.723C107.033 117.91 105.899 117.738 104.708 117.118C103.428 116.452 102.663 115.276 102.425 113.935C101.927 111.119 103.516 107.59 106.328 107.073C106.659 107.012 107.002 106.993 107.35 107.019C108.921 107.136 110.576 108.004 111.531 109.257V109.257Z" fill="#2D3958"/>
<path d="M213.973 258.391C214.149 254.881 219.053 252.45 222.11 254.182C222.992 254.681 223.748 255.545 224.258 256.788C224.806 258.123 224.632 259.514 223.948 260.691C222.512 263.165 219.021 264.836 216.538 263.417C216.247 263.25 215.973 263.043 215.723 262.798C214.598 261.695 213.894 259.964 213.973 258.391V258.391Z" fill="#2D3958"/>
<path d="M143.082 311.171C143.258 307.662 148.162 305.231 151.22 306.963C152.102 307.462 152.857 308.326 153.367 309.568C153.915 310.903 153.741 312.295 153.058 313.472C151.622 315.945 148.13 317.617 145.648 316.197C145.356 316.03 145.082 315.823 144.833 315.578C143.708 314.476 143.003 312.745 143.082 311.171V311.171Z" fill="#2D3958"/>
<path d="M133.592 189.05C135.154 191.681 132.444 195.761 129 196.42C127.896 196.631 126.681 196.458 125.478 195.801C124.208 195.108 123.618 193.907 123.661 192.582C123.74 190.144 125.571 187.336 128.333 186.808C128.685 186.74 129.046 186.715 129.408 186.733C131.131 186.818 132.814 187.741 133.592 189.05V189.05Z" fill="#2D3958"/>
<path d="M111.531 109.257C113.661 112.052 111.483 117.073 108.03 117.723C107.033 117.91 105.899 117.738 104.708 117.118C103.428 116.452 102.663 115.276 102.425 113.935C101.927 111.119 103.516 107.59 106.328 107.073C106.659 107.012 107.002 106.993 107.35 107.019C108.921 107.136 110.576 108.004 111.531 109.257V109.257Z" fill="#2D3958"/>
<path d="M213.973 258.391C214.149 254.881 219.053 252.45 222.11 254.182C222.992 254.681 223.748 255.545 224.258 256.788C224.806 258.123 224.632 259.514 223.948 260.691C222.512 263.165 219.021 264.836 216.538 263.417C216.247 263.25 215.973 263.043 215.723 262.798C214.598 261.695 213.894 259.964 213.973 258.391V258.391Z" fill="#2D3958"/>
<path d="M143.082 311.171C143.258 307.662 148.162 305.231 151.22 306.963C152.102 307.462 152.857 308.326 153.367 309.568C153.915 310.903 153.741 312.295 153.058 313.472C151.622 315.945 148.13 317.617 145.648 316.197C145.356 316.03 145.082 315.823 144.833 315.578C143.708 314.476 143.003 312.745 143.082 311.171V311.171Z" fill="#2D3958"/>
<path d="M7.19248 301.709C8.08289 303.162 6.57115 305.447 4.65033 305.784C4.04715 305.889 3.38448 305.789 2.72633 305.429C2.02952 305.049 1.69895 304.397 1.70991 303.677C1.73057 302.317 2.7655 300.739 4.31023 300.469C4.50446 300.435 4.70298 300.424 4.90203 300.437C5.83998 300.497 6.75798 301 7.19248 301.709V301.709Z" fill="#2D3958"/>
<path d="M87.8934 131.804C89.0955 133.345 87.8811 136.153 85.9548 136.481C85.4097 136.574 84.7904 136.474 84.1393 136.135C83.4377 135.77 83.0131 135.133 82.8725 134.406C82.5697 132.84 83.4695 130.857 85.0428 130.597C85.225 130.567 85.4136 130.56 85.6055 130.577C86.461 130.653 87.365 131.127 87.8934 131.804V131.804Z" fill="#2D3958"/>
<path d="M1.28681 56.3795C1.36233 54.4269 4.10214 53.0648 5.7856 54.0569C6.26206 54.3377 6.67061 54.8137 6.9494 55.4927C7.24983 56.2243 7.16316 56.9851 6.80142 57.6313C6.02248 59.0229 4.05581 59.9572 2.68601 59.1406C2.5274 59.0461 2.37876 58.9298 2.24306 58.793C1.63819 58.1834 1.25363 57.2376 1.28681 56.3795V56.3795Z" fill="#2D3958"/>
<path d="M246.58 256.416C246.655 254.463 249.395 253.101 251.079 254.094C251.555 254.374 251.964 254.85 252.242 255.529C252.543 256.261 252.456 257.022 252.094 257.668C251.315 259.059 249.349 259.994 247.979 259.177C247.82 259.083 247.672 258.966 247.536 258.83C246.931 258.22 246.547 257.274 246.58 256.416V256.416Z" fill="#2D3958"/>
<path d="M175.689 309.197C175.765 307.244 178.505 305.882 180.188 306.874C180.665 307.155 181.073 307.631 181.352 308.31C181.652 309.042 181.566 309.802 181.204 310.449C180.425 311.84 178.458 312.775 177.088 311.958C176.93 311.863 176.781 311.747 176.646 311.61C176.041 311.001 175.656 310.055 175.689 309.197V309.197Z" fill="#2D3958"/>
<path d="M53.7435 203.47C54.1947 204.371 53.3094 205.675 52.1898 205.979C51.7911 206.087 51.349 206.045 50.9162 205.809C50.468 205.565 50.2829 205.119 50.3375 204.629C50.4261 203.833 50.9906 202.951 51.8754 202.708C51.9973 202.675 52.1222 202.657 52.2476 202.654C52.8799 202.641 53.4962 202.976 53.7435 203.47V203.47Z" fill="#2D3958"/>
<path d="M50.4124 92.0269C51.0631 92.9932 50.3492 94.6068 49.2272 94.9201C48.8705 95.0197 48.4596 94.9772 48.0296 94.7534C47.5752 94.517 47.3217 94.0765 47.2709 93.5759C47.1766 92.6454 47.6599 91.5337 48.5608 91.2825C48.6751 91.2507 48.794 91.2345 48.9152 91.2347C49.4903 91.2357 50.0912 91.5499 50.4124 92.0269V92.0269Z" fill="#2D3958"/>
<path d="M4.25763 110.953C4.38395 109.794 5.97053 109.022 7.02993 109.507C7.36664 109.661 7.65317 109.958 7.83731 110.407C8.03186 110.881 7.9414 111.381 7.65712 111.796C7.12883 112.568 6.04232 113.105 5.19201 112.716C5.08412 112.667 4.98284 112.602 4.89035 112.524C4.4516 112.152 4.19527 111.524 4.25763 110.953V110.953Z" fill="#2D3958"/>
<path d="M249.551 310.989C249.677 309.831 251.263 309.059 252.323 309.543C252.66 309.697 252.946 309.995 253.13 310.444C253.325 310.917 253.234 311.417 252.95 311.833C252.422 312.604 251.335 313.142 250.485 312.753C250.377 312.703 250.276 312.639 250.183 312.56C249.745 312.189 249.488 311.561 249.551 310.989V310.989Z" fill="#2D3958"/>
<path d="M72.5544 325.495C72.7755 326.639 74.4201 327.278 75.4361 326.708C75.7591 326.527 76.0202 326.207 76.1668 325.745C76.3218 325.257 76.1906 324.766 75.8731 324.375C75.2832 323.649 74.1562 323.203 73.3408 323.661C73.2373 323.719 73.1416 323.791 73.0559 323.877C72.6492 324.284 72.4453 324.93 72.5544 325.495V325.495Z" fill="#2D3958"/>
<path d="M86.3214 191.985C87.2118 193.438 85.7001 195.723 83.7792 196.06C83.1761 196.165 82.5134 196.065 81.8552 195.705C81.1584 195.325 80.8279 194.673 80.8388 193.952C80.8595 192.593 81.8944 191.015 83.4391 190.745C83.6334 190.711 83.8319 190.7 84.0309 190.713C84.9689 190.773 85.8869 191.276 86.3214 191.985V191.985Z" fill="#2D3958"/>
<path d="M80.7446 78.1502C81.9467 79.6907 80.7323 82.4991 78.806 82.8273C78.2608 82.9202 77.6416 82.8202 76.9905 82.4813C76.2889 82.1162 75.8643 81.479 75.7237 80.7519C75.4209 79.1862 76.3207 77.2035 77.894 76.9435C78.0762 76.9134 78.2648 76.9063 78.4567 76.9233C79.3122 76.9987 80.2162 77.4732 80.7446 78.1502V78.1502Z" fill="#2D3958"/>
<path d="M217.423 302.02C217.499 300.068 220.239 298.705 221.922 299.698C222.399 299.978 222.807 300.454 223.086 301.133C223.386 301.865 223.3 302.626 222.938 303.272C222.159 304.663 220.192 305.598 218.822 304.781C218.664 304.687 218.515 304.57 218.38 304.434C217.775 303.824 217.39 302.878 217.423 302.02V302.02Z" fill="#2D3958"/>
<path d="M41.2728 337.074C41.5085 339.014 44.351 340.146 45.9472 339.019C46.399 338.7 46.7671 338.192 46.9891 337.493C47.2284 336.739 47.0795 335.988 46.6659 335.373C45.7753 334.05 43.7385 333.281 42.4404 334.207C42.2901 334.314 42.1515 334.443 42.0275 334.59C41.4748 335.247 41.1692 336.221 41.2728 337.074V337.074Z" fill="#2D3958"/>
<path d="M16.2971 257.743C17.1875 259.196 15.6758 261.481 13.7549 261.818C13.1518 261.924 12.4891 261.823 11.8309 261.464C11.1341 261.083 10.8036 260.431 10.8145 259.711C10.8352 258.352 11.8701 256.773 13.4148 256.503C13.6091 256.47 13.8076 256.459 14.0066 256.471C14.9446 256.531 15.8626 257.034 16.2971 257.743V257.743Z" fill="#2D3958"/>
<path d="M52.2194 150.094C53.4216 151.634 52.2072 154.442 50.2809 154.771C49.7357 154.864 49.1164 154.764 48.4654 154.425C47.7638 154.06 47.3391 153.422 47.1985 152.695C46.8958 151.13 47.7955 149.147 49.3689 148.887C49.5511 148.857 49.7397 148.85 49.9316 148.867C50.787 148.942 51.6911 149.417 52.2194 150.094V150.094Z" fill="#2D3958"/>
<path d="M40.3424 65.4239C40.4179 63.4713 43.1577 62.1092 44.8411 63.1013C45.3176 63.3821 45.7262 63.8581 46.0049 64.5371C46.3054 65.2687 46.2187 66.0295 45.857 66.6758C45.078 68.0673 43.1114 69.0016 41.7415 68.1851C41.5829 68.0905 41.4343 67.9742 41.2986 67.8374C40.6937 67.2279 40.3092 66.282 40.3424 65.4239V65.4239Z" fill="#2D3958"/>
<path d="M214.745 318.241C214.82 316.289 217.56 314.927 219.243 315.919C219.72 316.2 220.128 316.676 220.407 317.354C220.708 318.086 220.621 318.847 220.259 319.493C219.48 320.885 217.514 321.819 216.144 321.002C215.985 320.908 215.837 320.792 215.701 320.655C215.096 320.045 214.712 319.099 214.745 318.241V318.241Z" fill="#2D3958"/>
<path d="M44.5886 241.301C45.9691 239.214 49.4703 238.828 51.1805 240.302C51.7895 240.827 52.137 241.645 52.0826 242.731C52.0264 243.856 51.3058 244.824 50.2614 245.445C48.5657 246.455 46.2308 246.775 44.8753 245.613C44.6886 245.453 44.5295 245.266 44.4015 245.055C43.7565 243.991 43.8318 242.446 44.5886 241.301V241.301Z" fill="#4DDFFD"/>
<path d="M151.694 151.874C153.074 149.786 156.576 149.401 158.286 150.875C158.895 151.399 159.242 152.218 159.188 153.304C159.132 154.429 158.411 155.396 157.367 156.018C155.671 157.028 153.336 157.347 151.981 156.186C151.794 156.026 151.635 155.838 151.507 155.627C150.862 154.563 150.937 153.018 151.694 151.874V151.874Z" fill="#4DDFFD"/>
<path d="M66.884 110.427C67.7261 107.886 71.8625 107.152 73.6767 109.12C74.186 109.673 74.5331 110.452 74.6361 111.445C74.7472 112.516 74.3468 113.476 73.6332 114.184C72.0799 115.724 69.1187 116.189 67.645 114.573C67.4755 114.387 67.3274 114.177 67.2038 113.945C66.6555 112.915 66.5171 111.534 66.884 110.427V110.427Z" fill="#4DDFFD"/>
<path d="M3.54506 86.2674C1.2622 87.6654 -2.37145 85.5571 -2.48742 82.8827C-2.51998 82.1319 -2.2824 81.3125 -1.72069 80.4878C-1.1146 79.5979 -0.188876 79.1223 0.812871 79.0422C2.9932 78.8679 5.55593 80.4229 5.63886 82.6086C5.6484 82.86 5.62588 83.1164 5.57059 83.3733C5.32522 84.5136 4.53974 85.6582 3.54506 86.2674V86.2674Z" fill="#4DDFFD"/>
<path d="M248.838 286.304C246.555 287.702 242.921 285.594 242.805 282.919C242.773 282.169 243.011 281.349 243.572 280.524C244.178 279.635 245.104 279.159 246.106 279.079C248.286 278.905 250.849 280.46 250.932 282.645C250.941 282.897 250.919 283.153 250.863 283.41C250.618 284.55 249.833 285.695 248.838 286.304V286.304Z" fill="#4DDFFD"/>
<path d="M177.947 339.085C175.665 340.483 172.031 338.375 171.915 335.7C171.882 334.949 172.12 334.13 172.682 333.305C173.288 332.415 174.214 331.94 175.215 331.86C177.396 331.685 179.958 333.24 180.041 335.426C180.051 335.677 180.028 335.934 179.973 336.191C179.728 337.331 178.942 338.476 177.947 339.085V339.085Z" fill="#4DDFFD"/>
<path d="M70.188 257.039C70.6413 256.353 71.656 256.452 72.4159 256.563C73.5123 256.722 74.8627 257.181 74.8344 257.746C74.8158 258.118 73.9092 259.09 72.9938 259.851C71.9635 260.708 70.6802 260.614 70.3153 259.439C70.1937 259.048 70.1017 258.638 70.0515 258.297C69.9902 257.88 69.9395 257.415 70.188 257.039V257.039Z" fill="#4DDFFD"/>
<path d="M75.4495 150.377C75.726 149.542 77.0844 149.301 77.6801 149.948C77.8474 150.129 77.9614 150.385 77.9952 150.711C78.0317 151.063 77.9002 151.378 77.6658 151.611C77.1558 152.116 76.1833 152.269 75.6994 151.738C75.6437 151.677 75.5951 151.608 75.5545 151.532C75.3745 151.194 75.329 150.74 75.4495 150.377V150.377Z" fill="#4DDFFD"/>
<path d="M22.7775 50.2188C22.0278 50.678 20.8346 49.9856 20.7965 49.1074C20.7858 48.8608 20.8638 48.5918 21.0483 48.3209C21.2473 48.0287 21.5513 47.8725 21.8802 47.8462C22.5962 47.789 23.4378 48.2996 23.465 49.0174C23.4682 49.0999 23.4608 49.1841 23.4426 49.2685C23.362 49.6429 23.1041 50.0188 22.7775 50.2188V50.2188Z" fill="#4DDFFD"/>
<path d="M268.07 250.255C267.321 250.715 266.127 250.022 266.089 249.144C266.079 248.897 266.157 248.628 266.341 248.358C266.54 248.065 266.844 247.909 267.173 247.883C267.889 247.826 268.731 248.336 268.758 249.054C268.761 249.137 268.754 249.221 268.736 249.305C268.655 249.68 268.397 250.055 268.07 250.255V250.255Z" fill="#4DDFFD"/>
<path d="M197.18 303.036C196.43 303.495 195.237 302.803 195.199 301.925C195.188 301.678 195.266 301.409 195.451 301.138C195.65 300.846 195.954 300.69 196.283 300.664C196.999 300.606 197.84 301.117 197.867 301.835C197.871 301.917 197.863 302.001 197.845 302.086C197.764 302.46 197.506 302.836 197.18 303.036V303.036Z" fill="#4DDFFD"/>
<path d="M9.83762 222.922C10.291 222.237 11.4407 222.11 12.0023 222.594C12.2023 222.766 12.3164 223.035 12.2986 223.392C12.2801 223.761 12.0435 224.079 11.7005 224.283C11.1436 224.615 10.3769 224.72 9.93177 224.338C9.87047 224.286 9.8182 224.224 9.7762 224.155C9.56438 223.805 9.5891 223.298 9.83762 222.922V222.922Z" fill="#4DDFFD"/>
<path d="M31.5957 120.42C31.8723 119.586 33.2306 119.345 33.8263 119.991C33.9936 120.173 34.1076 120.429 34.1414 120.755C34.1779 121.106 34.0464 121.422 33.8121 121.654C33.302 122.16 32.3296 122.313 31.8456 121.782C31.79 121.721 31.7413 121.652 31.7007 121.576C31.5207 121.237 31.4753 120.784 31.5957 120.42V120.42Z" fill="#4DDFFD"/>
<path d="M36.9534 101.401C36.2037 101.86 35.0105 101.168 34.9724 100.29C34.9617 100.043 35.0397 99.7739 35.2242 99.5031C35.4232 99.2108 35.7272 99.0547 36.0561 99.0283C36.7721 98.9711 37.6137 99.4817 37.6409 100.2C37.6441 100.282 37.6367 100.366 37.6185 100.451C37.5379 100.825 37.28 101.201 36.9534 101.401V101.401Z" fill="#4DDFFD"/>
<path d="M282.246 301.438C281.497 301.897 280.303 301.204 280.265 300.326C280.255 300.08 280.333 299.811 280.517 299.54C280.716 299.247 281.02 299.091 281.349 299.065C282.065 299.008 282.907 299.518 282.934 300.236C282.937 300.319 282.93 300.403 282.911 300.487C282.831 300.862 282.573 301.238 282.246 301.438V301.438Z" fill="#4DDFFD"/>
<path d="M105.924 332.328C105.14 331.932 104.007 332.72 104.041 333.598C104.051 333.845 104.151 334.107 104.357 334.362C104.579 334.636 104.895 334.767 105.225 334.766C105.943 334.765 106.74 334.186 106.708 333.469C106.705 333.386 106.69 333.303 106.665 333.22C106.554 332.854 106.266 332.5 105.924 332.328V332.328Z" fill="#4DDFFD"/>
<path d="M148.38 208.299C149.761 206.211 153.262 205.825 154.972 207.299C155.581 207.824 155.929 208.643 155.875 209.729C155.818 210.853 155.098 211.821 154.053 212.443C152.358 213.453 150.023 213.772 148.667 212.61C148.48 212.45 148.321 212.263 148.193 212.052C147.548 210.988 147.624 209.443 148.38 208.299V208.299Z" fill="#4DDFFD"/>
<path d="M128.491 103.617C129.334 101.076 133.47 100.342 135.284 102.311C135.793 102.863 136.141 103.643 136.244 104.635C136.355 105.706 135.954 106.667 135.241 107.374C133.687 108.914 130.726 109.38 129.252 107.763C129.083 107.577 128.935 107.367 128.811 107.135C128.263 106.106 128.125 104.724 128.491 103.617V103.617Z" fill="#4DDFFD"/>
<path d="M187.399 260.23C185.116 261.628 181.482 259.52 181.366 256.845C181.334 256.094 181.571 255.275 182.133 254.45C182.739 253.56 183.665 253.085 184.667 253.005C186.847 252.83 189.41 254.385 189.493 256.571C189.502 256.822 189.48 257.079 189.424 257.336C189.179 258.476 188.394 259.621 187.399 260.23V260.23Z" fill="#4DDFFD"/>
<path d="M116.508 313.011C114.225 314.409 110.592 312.3 110.476 309.626C110.443 308.875 110.681 308.056 111.243 307.231C111.849 306.341 112.774 305.866 113.776 305.785C115.956 305.611 118.519 307.166 118.602 309.352C118.612 309.603 118.589 309.86 118.534 310.116C118.288 311.257 117.503 312.401 116.508 313.011V313.011Z" fill="#4DDFFD"/>
</g>
</svg>
