<svg width="252" height="261" viewBox="0 0 252 261" fill="none" xmlns="http://www.w3.org/2000/svg">
<path d="M52.5 212L41 188.5L72 184.5L82.5 202.5L87 208.5C86 208.833 83.4 209.6 81 210C78.6 210.4 74 218.5 72 222.5L74 227.5L73.5 236C71.6667 234.833 67 224.8 67 224C67 223 67.5 217 65 215.5C63 214.3 55.8333 212.667 52.5 212Z" fill="#F8FAFF"/>
<path d="M47.7643 238.126C48.221 239.8 47.2091 241.581 47.7643 243.202C51.3428 245.635 59.8 250.6 65 251C71.5 251.5 77 251 78 251C78.8 251 107 253 121 254L123 232L118.5 221L105.5 208C98.5 207 84.5 208 79 211C75.4 215.4 72.1667 220.5 72 222.5L75.5 233.5L71 232L72.5 230.5L73.5 228L70 225L66 222.5L67.5 220.352V217L65 215.5C61 214.5 60.7704 213.557 57 213C55 212.705 54 212.5 51.7429 212.796C50.9199 212.704 50.0917 213.201 49.705 213.996C49.1329 215.171 48.4771 216.974 48.7389 218.382C48.7368 218.372 49.1815 220.344 49.2069 220.352C47.4971 223.114 45.1254 222.75 46.1612 226.882C46.3795 227.757 47.1653 228.681 46.8887 229.54C46.2136 231.262 45.5616 233.527 46.1612 235.214C46.5872 236.414 47.4337 236.915 47.7643 238.126Z" fill="#E39880"/>
<path d="M97 158L98.5 149L132.5 139L139 144L134 158H97Z" fill="#E39880"/>
<path fill-rule="evenodd" clip-rule="evenodd" d="M79.7859 220.787C82.2416 219.827 84.8858 219.297 87.5433 219.091C86.1125 218.841 84.6775 218.6 83.2309 218.476C82.2216 218.39 81.2857 218.399 80.527 219.162C80.021 219.67 79.7837 220.325 79.4509 220.926C79.5596 220.878 79.6728 220.831 79.7859 220.787ZM53.4281 211.813C57.4499 212.017 61.4761 212.97 65.1141 214.697C66.6026 215.404 67.9514 216.426 68.3462 218.107C68.5459 218.965 68.4971 219.852 68.3908 220.719C68.3107 221.375 68.2908 222.213 67.7184 222.658C67.6208 222.733 67.5166 222.79 67.4079 222.832C68.7499 223.436 70.0279 224.162 71.1637 224.909C72.2016 225.592 73.2686 226.645 73.7478 227.832C73.7877 227.697 73.8277 227.572 73.8676 227.452C74.6839 225.046 75.9417 223.076 77.9227 221.751C77.5722 221.594 77.3304 221.223 77.4435 220.71C77.9138 218.567 79.8994 216.705 82.1419 216.837C84.5976 216.981 87.2351 217.872 89.4559 218.998C90.2653 218.98 91.073 218.991 91.8714 219.027C92.0089 219.031 92.0023 219.217 91.8714 219.232C91.2236 219.314 90.5759 219.405 89.9281 219.511C88.3886 219.757 86.8536 220.068 85.352 220.455C83.5505 220.92 81.6871 221.386 80.0034 222.198C76.7383 223.775 74.7172 227.897 75.132 231.483C75.2008 232.071 75.4293 233.849 76.2481 233.666C76.9399 233.511 77.215 232.071 77.4568 231.538C78.1046 230.123 79.2714 229.199 80.6711 228.573C82.3149 227.837 84.074 227.339 85.7779 226.76C86.7427 226.43 87.7076 226.101 88.6748 225.773C89.6642 225.435 90.6047 224.969 91.6584 225.205C92.2951 225.349 92.3683 226.105 92.0111 226.539C91.4677 227.2 90.6602 227.394 89.8771 227.666C88.8434 228.025 87.8119 228.383 86.7804 228.741C85.1856 229.294 83.515 229.761 81.9602 230.437L82.0088 230.548C82.1354 230.512 82.2841 230.638 82.2595 230.793C82.0265 232.224 81.7027 233.878 82.0622 235.311C82.346 236.448 83.3466 237.706 84.6464 237.372C84.4423 237.186 84.3668 236.866 84.5044 236.569C85.0193 235.472 91.7627 231.143 92.3639 232.751C92.3838 232.808 92.3219 232.85 92.2729 232.841C91.7605 232.735 90.902 233.606 90.4918 233.883C89.8995 234.281 89.2984 234.67 88.7125 235.079C88.0714 235.526 87.4459 235.995 86.8358 236.479C86.3567 236.859 85.9951 237.255 85.4452 237.447C85.7333 237.584 85.962 237.839 86.0594 238.164C86.3079 239.011 86.787 239.729 87.6189 240.103C88.4907 240.492 89.4734 240.247 90.3918 240.342C91.6429 240.468 92.7343 241.061 93.646 241.908C95.5604 243.69 96.521 246.83 99.1985 247.672C100.798 248.175 102.573 247.858 104.192 247.63C106 247.376 107.761 247.175 109.582 247.44C111.326 247.695 112.974 248.296 114.567 249.03C116.06 249.718 117.71 250.497 119.035 251.522C119.307 250.684 119.583 249.855 119.791 248.999C120.283 246.976 120.55 244.915 120.614 242.836C120.674 240.857 120.563 238.869 120.392 236.899C120.308 235.915 120.175 234.935 120.091 233.951C120.069 233.703 120.024 233.438 119.991 233.173C117.626 231.782 115.142 230.716 112.637 229.619C112.63 229.617 112.624 229.612 112.617 229.61C112.539 229.575 112.464 229.542 112.386 229.509C112.389 229.504 112.391 229.5 112.395 229.495C112.109 229.321 111.909 229.088 111.79 228.827C108.18 226.441 105.163 223.184 102.914 219.385C101.971 217.793 101.064 216.141 99.8307 214.746C98.5174 213.257 96.958 212.373 95.028 211.913C92.772 211.373 90.4472 211.05 88.1358 210.867C86.8735 210.767 85.4629 210.612 84.0873 210.619C83.129 210.626 82.1909 210.708 81.33 210.944C80.0545 211.294 79.3091 212.26 78.5083 213.237C77.743 214.175 76.9821 215.115 76.2678 216.092C75.5914 217.019 74.9523 217.976 74.3978 218.98C74.065 219.582 73.7567 220.201 73.4971 220.84C73.4062 221.066 73.2864 221.322 73.2309 221.556C73.1755 221.793 73.2775 222.043 73.0113 222.043C74.1094 222.058 74.0983 223.808 73.0069 223.743C68.7344 223.496 74.8547 215.181 75.7489 214.022C77.0156 212.382 78.322 210.241 80.3495 209.478C80.3783 209.467 80.4094 209.456 80.4382 209.447C79.8481 208.89 79.3823 208.222 78.9364 207.543C78.4772 206.844 77.9295 206.044 77.7785 205.215C77.6831 204.686 78.3419 204.385 78.6547 204.847C79.1095 205.522 79.3291 206.376 79.6685 207.117C80.0145 207.868 80.436 208.578 80.7687 209.337C81.5696 209.091 82.4347 208.979 83.3154 208.941C82.204 207.442 80.3053 204.549 80.0766 204.177C79.0252 202.457 78.0247 200.684 77.0686 198.908C76.0351 196.984 75.1498 194.98 74.1604 193.034C73.5992 191.931 73.0335 190.819 72.4102 189.748C72.195 189.381 71.9643 189.014 71.7025 188.68C71.6515 188.614 71.5872 188.559 71.5273 188.497C71.4585 188.459 71.3875 188.417 71.3476 188.395C70.9884 188.19 70.8618 187.712 70.6091 187.409C70.2052 186.92 69.7304 186.863 69.1226 186.856C67.8274 186.843 66.5272 186.894 65.2339 186.929C63.3328 186.982 61.434 187.057 59.5351 187.157C58.9605 187.188 58.3882 187.219 57.8137 187.254C55.0519 187.418 52.2923 187.632 49.5394 187.895C47.1037 188.127 44.668 188.506 42.2301 188.687C45.5309 196.504 49.1911 204.18 53.3351 211.588C53.3771 211.663 53.4083 211.738 53.4281 211.813ZM71.7424 231.952C72.2748 232.195 72.7916 232.498 73.273 232.843C73.1932 232.306 73.1732 231.74 73.1954 231.171C72.7983 231.596 72.2903 231.839 71.7424 231.952ZM49.0157 218.505C49.0534 218.509 49.0889 218.529 49.1066 218.567C49.8431 220.081 49.535 221.773 48.3324 222.961C47.7024 223.58 46.3293 224.279 46.3739 225.296C46.4116 226.118 47.3098 226.808 47.6935 227.487C48.0507 228.12 48.1838 228.814 47.8976 229.5C47.5316 230.377 46.509 230.727 46.1585 231.589C45.7148 232.684 46.4358 234.004 46.9415 234.957C47.4118 235.839 48.0199 236.722 48.4234 237.655C51.1275 239.051 53.5477 241.191 55.6284 243.365C57.9066 245.742 59.861 248.539 63.479 248.469C63.8406 248.462 64.1157 248.652 64.2798 248.915C65.287 248.962 66.2963 248.982 67.3034 248.986C69.0736 248.995 70.8438 248.977 72.6118 248.922C72.736 248.495 72.6451 247.916 72.652 247.555C72.6739 246.394 72.685 245.236 72.7338 244.075C72.7471 243.752 72.7604 243.427 72.7738 243.104C72.1371 244.251 70.8948 244.773 69.4796 244.694C67.2036 244.561 64.9143 244.19 62.6607 243.856C61.4737 243.681 60.2891 243.482 59.1067 243.27C58.1351 243.097 56.7642 243.142 56.0854 242.365C55.9257 242.184 55.9168 241.852 56.1675 241.731C56.8396 241.401 57.2633 241.585 58.0023 241.726C58.9027 241.901 59.8055 242.067 60.7108 242.222C62.4477 242.522 64.1889 242.801 65.9347 243.046C66.9285 243.186 67.9245 243.323 68.9205 243.431C69.7901 243.524 70.7706 243.65 71.4716 242.998C72.8847 241.68 72.0927 239.471 71.1988 238.139C71.181 238.113 71.181 238.088 71.1877 238.066C70.3447 237.87 69.504 237.64 68.6654 237.478C67.0527 237.169 65.4289 236.908 63.8029 236.676C60.4621 236.2 57.0992 235.886 53.7409 235.57C52.909 235.49 52.9001 234.186 53.7409 234.263C58.5657 234.703 63.4147 235.121 68.1752 236.048C69.3686 236.277 70.5534 236.538 71.7311 236.832C72.2879 236.97 72.8847 237.184 73.4681 237.191C73.5036 237.191 73.5393 237.191 73.5746 237.188C74.717 237.153 74.8834 236.178 74.2556 235.366C74.1779 235.267 74.0981 235.167 74.016 235.072C72.9069 233.754 71.5251 232.874 70.1009 231.963C68.5057 231.746 66.9152 231.264 65.3535 230.91C61.4981 230.035 57.6427 229.159 53.785 228.286C53.0288 228.113 53.3502 226.954 54.1067 227.125C57.0348 227.786 59.963 228.447 62.8914 229.108L67.177 230.077C68.0332 230.269 69.1027 230.656 70.1098 230.796C70.6065 230.864 71.0878 230.873 71.5226 230.771C72.9268 230.44 72.9978 228.69 72.3922 227.651C71.7134 226.483 70.4312 225.754 69.2932 225.092C67.3211 223.945 65.2226 223.12 63.1729 222.169C62.8091 222.089 62.4453 222.01 62.0815 221.93C59.9652 221.466 57.5473 221.238 55.5552 220.387C54.9585 220.134 55.2848 219.197 55.8747 219.21C57.4208 219.244 59.038 219.792 60.5486 220.117C62.1835 220.471 63.8207 220.822 65.4555 221.174C65.6197 221.209 66.5913 221.519 66.7377 221.45C66.8309 221.406 66.8642 221.083 66.8952 220.871C66.9953 220.172 67.0683 219.438 66.9596 218.737C66.72 217.165 65.4045 216.426 64.0735 215.822C61.1099 214.48 57.8601 213.64 54.6258 213.304C53.8804 213.226 53.1351 213.178 52.3853 213.153C51.5048 213.127 50.7792 212.972 50.3333 213.837C49.6323 215.199 49.2464 216.95 49.0157 218.505ZM53.1317 267.894C53.7775 265.668 53.6018 263.291 54.0441 261.02C54.2724 259.848 54.5841 258.686 54.9244 257.542C55.199 256.618 55.6571 255.636 55.709 254.671C55.7121 254.607 55.636 254.57 55.5836 254.6C54.6726 255.12 53.9729 256.244 53.4534 257.126C52.8314 258.182 52.3564 259.288 51.9733 260.451C51.2098 262.766 50.5829 265.56 51.5676 267.894C51.8606 268.589 52.8899 268.728 53.1317 267.894ZM73.0887 238.405C72.543 238.352 71.9973 238.248 71.4516 238.126C72.0616 238.719 72.625 239.433 72.938 240.225C72.9866 239.617 73.049 239.011 73.1308 238.407C73.1175 238.407 73.102 238.407 73.0887 238.405ZM78.3333 284.748C79.2956 284.079 79.9968 283.143 80.8129 282.317C81.6155 281.505 80.3608 280.254 79.558 281.066C78.8617 281.771 78.2572 282.651 77.4377 283.221C77.0433 283.495 76.8608 283.99 77.1192 284.431C77.3477 284.82 77.94 285.022 78.3333 284.748ZM83.6999 259.02C81.9432 258.263 80.2156 257.438 78.3771 256.893C77.2783 256.567 76.8132 258.274 77.9052 258.598C79.5985 259.101 81.1865 259.85 82.8041 260.547C83.8427 260.995 84.7454 259.47 83.6999 259.02ZM102.252 258.49C102.681 257.433 100.964 256.978 100.541 258.02C100.053 259.219 99.4946 260.387 99.0072 261.586C98.578 262.643 100.295 263.098 100.718 262.056C101.206 260.857 101.765 259.689 102.252 258.49ZM120.563 279.59C120.849 279.971 121.326 280.177 121.777 279.908C122.154 279.682 122.385 279.083 122.095 278.698C121.249 277.574 120.392 276.464 119.401 275.462C118.597 274.649 117.343 275.901 118.146 276.713C119.031 277.607 119.807 278.587 120.563 279.59ZM123.181 161.197C122.366 161.751 121.653 162.425 120.957 163.118C120.148 163.924 121.403 165.175 122.212 164.369C122.798 163.785 123.39 163.192 124.077 162.724C124.474 162.454 124.652 161.951 124.395 161.514C124.165 161.122 123.577 160.927 123.181 161.197ZM96.541 189.665C97.0016 190.584 97.4162 191.485 97.4423 192.53C97.4703 193.668 99.2449 193.669 99.2168 192.53C99.1828 191.163 98.677 189.977 98.0734 188.772C97.5628 187.752 96.0326 188.649 96.541 189.665ZM86.7667 166.801C85.8126 166.167 84.925 167.7 85.8707 168.329C86.6373 168.838 87.4042 169.348 88.1708 169.857C89.1245 170.491 90.012 168.958 89.0666 168.33C88.2999 167.82 87.5333 167.311 86.7667 166.801ZM129.162 206.776C129.325 207.901 131.035 207.42 130.873 206.306C130.624 204.585 130.319 202.887 129.851 201.211C129.544 200.114 127.833 200.583 128.14 201.681C128.608 203.358 128.913 205.056 129.162 206.776ZM135.384 227.041C136.526 227.017 136.526 225.248 135.384 225.272C134.35 225.294 133.334 225.565 132.337 225.813C131.228 226.089 131.701 227.795 132.809 227.519C133.652 227.309 134.51 227.06 135.384 227.041ZM137.681 267.863C138.073 268.053 138.476 268.225 138.872 268.405C139.667 268.767 140.461 269.13 141.254 269.493C142.908 270.25 144.561 271.009 146.212 271.771C149.517 273.296 152.848 274.768 156.161 276.276C159.54 277.815 162.91 279.374 166.275 280.941C167.861 281.679 169.459 282.39 171.053 283.108C172.416 283.723 174.102 284.797 175.598 284.898C175.675 284.903 175.701 284.806 175.657 284.756C175.092 284.115 174.19 283.742 173.447 283.326C172.688 282.9 171.914 282.499 171.144 282.093C169.54 281.245 167.933 280.405 166.313 279.587C163.072 277.952 159.825 276.329 156.577 274.708C153.264 273.054 149.956 271.39 146.615 269.795C145.042 269.044 143.467 268.296 141.891 267.549C141.038 267.145 140.183 266.742 139.329 266.339C138.961 266.165 138.595 265.977 138.218 265.821C137.717 265.615 137.336 265.657 136.819 265.529C135.976 265.322 135.612 266.39 136.259 266.856C136.791 267.239 137.072 267.567 137.681 267.863ZM149.528 286.003C149.71 285.562 149.329 285.025 148.908 284.914C148.405 284.782 148.001 285.087 147.817 285.532C147.33 286.712 146.637 287.795 145.745 288.709C144.948 289.526 146.202 290.777 147 289.96C148.118 288.814 148.921 287.475 149.528 286.003ZM158.244 257.606C159.053 256.8 157.798 255.549 156.989 256.356L154.689 258.648C153.88 259.455 155.136 260.705 155.944 259.899L158.244 257.606ZM181.84 253.869C183.494 254.352 185.423 254.797 186.55 256.203C186.605 256.272 186.697 256.183 186.664 256.115C185.221 253.132 181.082 252.086 178.217 251.041C176.19 250.302 174.11 249.689 172.013 249.141C172.222 246.756 171.644 244.2 171.443 241.827C171.229 239.293 171.054 236.753 170.965 234.211C170.873 231.618 170.851 229.008 170.937 226.415C171.022 223.831 171.358 221.278 171.506 218.703C171.52 218.454 171.172 218.442 171.097 218.648C170.226 221.038 169.854 223.685 169.57 226.205C169.279 228.801 169.182 231.389 169.219 234C169.257 236.685 169.414 239.363 169.629 242.039C169.731 243.307 169.849 244.574 169.961 245.841C170.046 246.809 170.085 247.768 170.283 248.705C169.018 248.395 167.751 248.102 166.487 247.818C162.457 246.911 158.41 246.07 154.397 245.09C152.428 244.609 150.486 244.033 148.525 243.521C146.678 243.039 144.729 242.455 142.834 242.24C142.157 242.163 142.071 243.085 142.519 243.399C144.06 244.477 146.106 245.228 147.886 245.832C149.672 246.437 151.529 246.873 153.36 247.322C157.177 248.258 161.032 249.023 164.88 249.821C168.723 250.617 172.573 251.407 176.373 252.39C178.203 252.863 180.026 253.338 181.84 253.869ZM190.901 206.541C191.889 207.119 192.781 205.589 191.797 205.013C190.509 204.259 189.136 203.693 187.752 203.141C186.69 202.717 186.233 204.429 187.28 204.847C188.524 205.343 189.744 205.864 190.901 206.541ZM194.479 272.265C195.47 272.838 196.363 271.309 195.375 270.738C193.988 269.936 192.468 269.401 191.031 268.7C190.008 268.201 189.109 269.727 190.135 270.228C191.572 270.929 193.092 271.464 194.479 272.265ZM196.088 234.957C195.131 235.864 193.852 236.291 192.647 236.768C191.596 237.183 192.057 238.893 193.119 238.473C194.62 237.88 196.15 237.338 197.343 236.208C198.173 235.422 196.916 234.173 196.088 234.957ZM185.491 184.289C184.438 184.701 184.899 186.411 185.963 185.995C187.143 185.534 188.361 185.183 189.541 184.722C190.594 184.31 190.133 182.6 189.069 183.016C187.889 183.477 186.671 183.828 185.491 184.289ZM166.797 164.164C165.678 163.976 165.202 165.681 166.325 165.87C167.719 166.105 169.092 166.379 170.414 166.889C171.482 167.301 171.94 165.59 170.886 165.184C169.563 164.674 168.191 164.399 166.797 164.164ZM160.62 213.164C161.646 212.661 160.746 211.136 159.725 211.637C158.648 212.164 157.533 212.572 156.359 212.821C155.24 213.059 155.717 214.764 156.831 214.527C158.152 214.246 159.41 213.757 160.62 213.164ZM154.786 185.563C153.681 185.262 153.214 186.968 154.314 187.269C156.25 187.798 158.242 188.073 160.192 188.543C161.303 188.811 161.773 187.105 160.664 186.837C158.714 186.367 156.721 186.092 154.786 185.563ZM130.037 176.902C128.914 177.109 129.393 178.814 130.509 178.608C131.697 178.389 132.902 178.385 134.106 178.384C135.25 178.384 135.248 176.615 134.106 176.615C132.738 176.616 131.386 176.653 130.037 176.902ZM49.3219 186.144C52.2212 185.868 55.125 185.647 58.0332 185.481C58.1687 185.474 58.3016 185.465 58.4371 185.458C58.4524 185.428 58.4724 185.399 58.4926 185.368C59.4418 183.979 60.1406 182.59 60.7462 181.02C61.3251 179.525 61.8864 177.984 62.7781 176.635C63.7952 175.098 65.1684 173.896 66.6733 172.854C67.5861 173.466 68.4333 174.182 69.2083 174.941C70.024 175.74 71.2792 174.49 70.4633 173.69C69.7745 173.015 69.0393 172.392 68.2623 171.829C69.1596 171.285 70.0751 170.775 70.9681 170.266C74.3158 168.363 77.7429 166.602 81.2411 164.992C82.8672 164.243 84.5131 163.577 86.1702 162.903C87.0622 162.54 87.9426 162.073 88.8344 161.653C88.7701 161.025 88.9586 160.322 89.4422 159.908C89.7994 159.605 90.0767 159.493 90.5026 159.278C90.598 159.245 90.6556 159.225 90.6823 159.214C90.6623 159.218 90.6046 159.236 90.5095 159.267C90.283 159.371 90.2652 159.34 90.456 159.176C90.4671 158.818 91.175 158.062 91.3367 157.693C91.9001 156.426 92.0754 155.085 92.9072 153.931C94.0541 152.341 95.9796 151.74 97.7744 152.279C97.9605 150.366 98.0093 148.37 98.7325 146.662C98.7525 146.616 98.8168 146.596 98.8456 146.647C99.5999 147.928 99.6642 149.354 99.7219 150.831C99.7773 152.217 99.7243 153.635 99.5422 155.012C99.6575 155.101 99.7751 155.185 99.8971 155.267C100.469 155.643 101.086 155.932 101.734 156.147C102.967 156.554 104.261 156.731 105.554 156.793C108.892 156.952 112.333 156.616 115.616 156.045C118.937 155.468 124.028 154.601 126.983 152.945C128.933 151.853 130.732 150.519 132.555 149.228C131.894 147.105 131.725 144.823 132.391 143.029C132.471 142.815 132.808 142.775 132.872 143.029C133.289 144.741 133.411 146.461 133.966 148.153C133.975 148.177 133.984 148.204 133.993 148.228C134.166 148.111 134.339 147.996 134.512 147.881C134.911 147.618 135.454 147.815 135.694 148.19C139.525 154.208 145.592 154.552 151.963 155.627C158.935 156.804 165.943 158.073 172.647 160.375C179.058 162.578 185.184 165.784 190.038 170.574C191.137 171.658 192.164 172.814 193.134 174.02C192.196 174.138 191.265 174.322 190.347 174.609C189.259 174.95 189.726 176.657 190.819 176.315C191.999 175.945 193.193 175.762 194.399 175.671C197.697 180.169 200.268 185.268 202.492 190.288C206.757 199.912 209.533 210.161 210.811 220.596C210.109 220.177 209.395 219.778 208.663 219.406C207.646 218.891 206.75 220.418 207.768 220.934C208.898 221.507 209.996 222.139 211.06 222.824C211.525 227.391 211.705 231.988 211.596 236.578C211.336 247.52 209.854 258.782 206.502 269.222C204.859 274.346 202.68 279.428 199.435 283.757C197.966 285.719 196.298 287.488 194.333 288.963C193.381 289.679 192.374 290.319 191.311 290.858C189.943 291.557 188.159 291.787 186.979 292.775C186.591 293.1 186.291 293.529 186.065 294.014C186.196 294.933 186.212 295.856 185.959 296.775C185.879 297.063 185.661 297.297 185.393 297.41C185.389 297.49 185.389 297.567 185.389 297.642C185.389 297.678 185.335 297.687 185.329 297.651C185.318 297.583 185.306 297.514 185.295 297.444C185.209 297.472 185.118 297.486 185.025 297.486C181.655 297.498 178.281 297.416 174.907 297.302C175.168 296.505 175.451 295.716 175.722 294.919C176.091 293.837 174.376 293.376 174.011 294.449C173.693 295.38 173.362 296.303 173.066 297.238C169.451 297.104 165.837 296.943 162.229 296.824C154.556 296.57 146.885 296.486 139.21 296.325C127.291 296.073 115.285 295.557 103.347 296.061C102.935 295.188 102.473 294.335 102.034 293.473C101.518 292.456 99.987 293.353 100.502 294.366C100.807 294.965 101.122 295.556 101.422 296.153C99.004 296.278 96.5887 296.444 94.1785 296.67C90.0658 297.054 85.9927 297.737 81.8844 298.162C77.7076 298.595 73.6212 298.518 69.4774 297.831C68.7321 297.707 68.2929 297.258 68.111 296.7C68.1045 296.698 68.0999 296.694 68.0956 296.687C67.8827 296.439 67.6828 296.234 67.4767 296.055C67.2303 295.896 66.9641 295.76 66.6513 295.641C66.0679 295.42 65.4601 295.285 64.8434 295.194C64.1646 295.093 63.4769 295.084 62.7981 295C62.226 294.927 61.6668 294.818 61.108 294.686C60.1029 294.447 59.149 294.135 58.1996 293.722C57.3721 293.361 56.6248 292.844 55.9191 292.28C54.4595 291.216 53.1953 289.859 52.0903 288.448C51.447 287.623 50.8414 286.767 50.2913 285.876C49.333 284.332 48.5166 282.729 47.6914 281.112C47.392 280.634 47.1187 280.143 46.8689 279.642C48.4816 279.169 50.1098 278.782 51.8195 278.755C52.9623 278.737 52.9621 276.968 51.8195 276.986C49.8587 277.017 48.004 277.474 46.1612 278.018C46.0714 277.78 45.9853 277.541 45.9057 277.298C45.6861 276.792 45.5042 276.272 45.3533 275.746C45.2648 275.507 45.1758 275.268 45.0871 275.029C44.8875 274.202 44.6878 273.373 44.486 272.544C44.0844 271.217 43.7674 269.87 43.5343 268.506C43.3391 267.608 43.1883 266.703 43.0862 265.788C42.7756 263.57 42.5228 261.356 42.505 259.114C42.5316 257.732 42.6204 256.352 42.7712 254.979C42.8355 254.046 42.9442 253.117 43.0906 252.195C43.2814 250.824 43.47 249.466 43.7872 248.113C44.0245 247.197 44.2619 246.282 44.4993 245.366C45.0916 243.458 45.7903 241.587 46.5958 239.758C46.6399 239.643 46.8642 239.391 46.9993 239.389C47.1013 239.387 47.2435 239.479 47.197 239.603C47.1923 239.614 47.1881 239.628 47.1834 239.639C47.23 239.535 47.2744 239.429 47.321 239.325C47.3609 239.227 47.5162 239.033 47.636 239.035C47.6426 239.035 47.6495 239.035 47.6581 239.037C47.6271 239.015 47.5982 238.986 47.5694 238.953C46.773 238.013 46.2562 236.777 45.6861 235.689C45.2136 234.791 44.7677 233.845 44.639 232.83C44.5261 231.939 44.6789 231.061 45.2402 230.34C45.8791 229.519 47.0814 229.135 46.4137 227.949C45.655 226.6 44.5392 225.431 45.6506 223.898C46.2162 223.118 47.1124 222.689 47.7779 222.01C48.5432 221.225 48.9073 220.174 48.8871 219.102C48.8405 219.128 48.7784 219.115 48.7562 219.049C48.1129 217.112 48.5787 214.984 49.2376 213.098C49.5969 212.074 50.358 211.793 51.2429 211.743C47.4099 204.279 43.8229 196.696 40.6261 188.939C40.5196 188.685 40.4154 188.431 40.3113 188.176C40.1558 187.796 40.4841 187.29 40.8635 187.205C43.6275 186.602 46.5068 186.409 49.3219 186.144Z" fill="#2D3958"/>
<path d="M46.4963 191.864C46.4949 191.514 46.7015 191.196 47.0183 191.046C47.8 190.677 48.3942 190.515 49.1701 190.448C49.5372 190.416 49.8873 190.611 50.0557 190.939C50.4733 191.752 50.6442 192.382 50.6904 193.258C50.7098 193.626 50.503 193.97 50.1678 194.124C49.4597 194.449 48.8758 194.591 48.0668 194.683C47.6894 194.726 47.3214 194.538 47.1328 194.209C46.7378 193.518 46.5007 192.932 46.4963 191.864Z" fill="#2D3958"/>
<path d="M49.2897 196.684C49.1532 196.087 49.5837 195.47 50.1736 195.306V195.306C50.7938 195.134 51.4258 195.505 51.6047 196.124C51.6155 196.161 51.6255 196.199 51.6348 196.236C51.7805 196.832 51.4175 197.441 50.8247 197.599V197.599C50.2142 197.762 49.514 197.438 49.3297 196.834C49.3149 196.785 49.3015 196.735 49.2897 196.684Z" fill="#2D3958"/>
<path fill-rule="evenodd" clip-rule="evenodd" d="M93.3002 72.0275C107.89 60.2065 131.27 56.3682 146.888 68.2943C159.023 79.4866 164.045 111.292 161.897 127.273C161.3 137.524 153.444 149.143 141.912 145.901C139.953 145.709 138.052 144.96 136.075 144.803C133.711 144.532 131.329 144.527 128.97 144.86C123.829 145.585 119.271 148.306 114.281 149.578C105.022 151.938 94.6915 150.351 86.7216 145.034C60.3843 127.772 72.3143 88.7342 93.3002 72.0275V72.0275Z" fill="#E39880"/>
<path fill-rule="evenodd" clip-rule="evenodd" d="M95.2436 149.862C94.9727 149.769 94.7023 149.672 94.4339 149.572C94.4161 149.634 94.3873 149.694 94.3538 149.752C94.3161 149.844 94.2784 149.935 94.2364 150.026C94.5734 150.028 94.9108 149.968 95.2436 149.862M95.7847 35.3096C95.9045 35.0422 96.0423 34.7857 96.1976 34.5378C95.8204 34.6597 95.4431 34.8277 95.1015 35.0445C95.3322 35.1219 95.5587 35.2103 95.7847 35.3096M153.414 70.2845C153.43 70.2818 153.445 70.2796 153.461 70.2769C153.263 69.7517 152.91 69.256 152.521 68.8979C152.451 68.8336 152.375 68.7741 152.302 68.7126C152.715 69.2033 153.09 69.7268 153.414 70.2845M47.967 125.203C48.1622 123.359 48.4107 121.522 48.7323 119.695C49.0407 117.946 49.3002 116.075 50.1942 114.523C51.0815 112.977 51.9711 111.475 53.0268 110.115C52.8762 109.421 52.6763 108.769 52.5035 108.242C51.5052 105.213 50.5223 101.365 52.5966 98.55C53.078 97.8977 53.6657 97.3979 54.338 96.9468C54.6242 96.7544 55.0987 96.5797 55.3185 96.3143C55.4738 96.1264 55.4203 96.2281 55.4272 96.1352C55.4649 95.6354 54.2892 94.5806 54.0141 94.1848C53.4993 93.4526 53.1157 92.628 52.8229 91.7855C51.665 88.4508 52.4525 84.7777 53.1488 81.4361C53.517 79.6651 53.923 77.8894 54.0563 76.0805C54.1805 74.3822 53.9476 72.7236 53.8101 71.0342C53.6767 69.3666 53.7122 67.6464 54.429 66.1026C54.7795 65.3508 55.3094 64.6874 55.9552 64.1699C56.5849 63.6637 57.3704 63.3696 57.9847 62.8654C58.5972 62.3632 58.4219 61.6846 58.262 60.9902C58.0426 60.0482 57.7653 59.1128 57.7387 58.1398C57.6899 56.4437 58.3842 54.7916 59.4687 53.5092C60.587 52.1846 62.1842 51.2888 63.91 51.0876C64.6997 50.9947 65.4762 51.1519 66.2614 51.0966C67.0378 51.0436 67.2062 50.6566 67.3528 49.9489C67.6898 48.328 67.5525 46.727 68.3531 45.2144C69.0629 43.8699 70.3254 42.9586 71.7207 42.4215C74.2782 41.4352 77.2529 41.6387 79.9506 42.2201C81.5431 37.5499 86.5144 34.4872 91.4058 34.4496C92.1691 33.1582 93.4623 32.194 94.9373 31.6277C97.3774 30.6879 99.962 31.2365 102.504 31.2365H102.515C102.77 31.2208 103.025 31.2144 103.28 31.2166C103.52 31.2031 103.76 31.1832 103.999 31.1569C106.892 30.8161 109.754 29.6353 112.62 30.792C113.897 31.3073 114.913 32.1011 115.556 33.1139C116.526 33.3769 117.482 33.6778 118.42 34.0272C122.487 34.1331 126.515 36.3069 128.571 39.8298C131.466 39.5025 134.607 40.0576 136.522 42.4149C137.021 43.0283 137.407 43.749 137.663 44.5141C139.615 45.1435 141.421 46.2648 142.603 47.9539C143.682 49.4952 143.889 51.488 143.16 53.1426C144.903 54.4011 146.264 56.2026 146.92 58.33C147.319 59.6225 147.378 60.9579 147.122 62.2301C148.906 62.6246 150.612 63.3559 152.124 64.4534C153.709 65.6031 155.688 67.433 155.792 69.5391C155.8 69.6936 155.794 69.8482 155.782 70.0024C159.27 69.758 162.827 70.3471 165.185 73.135C166.955 75.2267 167.724 77.9203 167.252 80.3727C171.402 81.213 175.327 83.3757 178.064 86.5733C180.054 88.8975 181.822 91.8518 181.716 95.016C181.682 95.9694 181.458 96.9291 181.07 97.8158V97.8178C181.236 98.1298 181.407 98.477 181.571 98.8463C184.142 100.64 186.01 103.45 187.062 106.548C187.911 109.058 188.446 112.318 187.539 114.872C187.401 115.261 187.226 115.628 187.022 115.969C187.193 116.15 187.354 116.331 187.512 116.515C189.245 118.534 190.999 121.077 190.879 123.856C190.83 124.976 190.414 126.101 189.732 127.025C192.128 129.447 194.058 132.503 193.867 135.915C193.703 138.885 192.068 141.901 189.506 143.328C189.934 145.616 189.362 148.031 187.574 149.818C186.682 150.711 185.631 151.3 184.517 151.614C184.269 154.309 181.869 156.479 179.32 157.102C178.845 157.219 178.37 157.29 177.898 157.323C175.604 158.444 172.869 158.316 170.529 157.288C169.839 158.161 168.94 158.873 167.893 159.384C167.47 159.592 167.021 159.765 166.553 159.904C163.248 160.879 159.858 159.557 156.968 158.013C156.875 157.965 156.704 157.903 156.553 157.834C156.154 158.279 155.426 158.719 155.047 158.935C153.76 159.672 152.187 160.014 150.71 159.917C148.978 159.802 147.449 159.232 146.034 158.42C145.828 158.455 145.619 158.475 145.411 158.486C144.08 158.557 142.893 158.137 141.826 157.474C141.121 157.567 140.397 157.558 139.665 157.429C138.052 157.838 136.482 157.188 135.22 156.156C134.661 155.698 134.188 155.161 133.682 154.648C133.157 154.114 132.757 153.991 132.143 153.633C130.69 152.786 130.515 150.638 131.145 149.086C131.025 148.814 130.956 148.511 130.956 148.175C130.961 145.243 132.316 142.554 133.98 140.207C134.723 139.161 135.53 138.137 136.415 137.209C137.128 136.463 138.128 135.254 139.181 134.951C139.246 134.905 139.313 134.858 139.379 134.814C139.175 134.102 139.055 133.377 139.106 132.636C139.16 131.875 139.406 131.154 139.8 130.539C138.476 127.981 137.917 125.175 138.183 122.247C137.105 120.723 136.289 119.04 135.868 117.196C135.608 116.055 135.459 114.854 135.479 113.684C135.488 113.123 135.695 112.413 135.699 111.831C135.668 112.015 135.428 111.329 135.335 111.159C134.266 109.18 132.893 107.636 132.664 105.303C132.531 103.939 132.855 102.431 133.676 101.312C133.15 99.2466 133.157 97.0284 133.984 95.0583C134.206 94.532 134.461 94.0167 134.754 93.528C134.619 93.1167 134.494 92.701 134.335 92.327C134.272 92.1789 134.21 92.0287 134.148 91.8784C133.547 91.3496 132.988 90.7727 132.518 90.2064C131.475 88.9527 130.679 87.5154 130.579 85.8588C130.53 85.0296 130.725 84.2357 130.967 83.4487C131.074 83.0927 131.138 82.6968 131.265 82.3496C131.335 82.157 131.506 81.9604 131.566 81.7791C131.58 81.7393 131.591 81.7061 131.6 81.6796C131.591 81.6531 131.584 81.5978 131.584 81.4936C131.582 80.6998 131.478 79.9236 131.473 79.1587C130.743 79.8928 129.865 80.441 128.866 80.7619C126.855 81.4054 124.756 81.1135 122.975 80.1206C121.058 81.4297 118.904 82.6148 116.646 83.0905C115.304 83.3733 113.959 83.2563 112.613 83.431C111.275 83.6057 109.982 84.1873 108.722 84.6406C105.918 85.6512 103.121 86.6881 100.308 87.6724C98.0365 88.4662 95.5786 89.0965 93.2004 88.6498C92.5327 89.6756 91.6653 90.5427 90.5539 91.1796C89.7578 91.6329 88.8838 91.9401 87.9809 92.0929C87.1823 92.2277 86.246 92.1747 85.5984 92.7209C84.9662 93.2516 84.5714 94.043 84.0035 94.6403C83.371 95.3082 82.5904 95.8875 81.7719 96.3033C81.1152 96.6372 80.4451 96.878 79.7643 97.0352C79.824 98.5456 79.8819 100.054 79.8996 101.566C79.9327 104.852 79.9196 108.138 79.9637 111.424C80.0081 114.699 80.1123 117.974 80.2854 121.245C80.4497 124.314 80.6805 127.395 81.4147 130.389C83.8504 140.325 92.9743 147.439 103.187 147.801C106.22 147.91 109.221 147.485 112.121 146.596C115.124 145.674 117.806 143.776 120.885 143.193C121.69 143.042 122.449 143.85 121.988 144.625C121.193 145.959 120.228 146.773 118.909 147.575C117.526 148.414 115.987 149.035 114.468 149.579C111.672 150.578 108.715 151.158 105.749 151.319C103.487 151.443 101.215 151.288 98.9993 150.864C98.8437 151.339 98.5687 151.802 98.3604 152.242C98.3293 152.306 98.2248 152.261 98.2448 152.195C98.2783 152.085 98.3003 151.987 98.3091 151.908C97.564 152.876 96.4127 153.546 95.2301 153.871C94.3963 154.101 93.5109 154.172 92.6524 154.075C92.3752 154.044 92.1114 153.997 91.8494 153.94C90.9756 154.703 89.8576 155.211 88.7351 155.466C88.9279 156.633 88.3491 157.907 87.0068 158.239C86.4436 158.378 85.9024 158.38 85.3609 158.329C84.9239 158.533 84.4536 158.692 83.9545 158.8C83.3047 158.942 82.5283 158.76 82.0381 158.292C81.7696 158.48 81.519 158.61 81.2705 158.909C80.2477 160.138 78.0429 159.159 77.9453 157.737C77.6214 157.737 77.2953 157.741 76.969 157.752C76.8916 157.788 76.8139 157.823 76.7341 157.861C75.3077 158.522 73.8303 159.099 72.2529 158.579C71.9625 158.484 71.6963 158.363 71.4545 158.221C70.3431 158.321 69.2473 158.323 68.1202 157.96C67.4547 157.745 66.8293 157.405 66.308 156.958C64.5689 157.467 62.7341 157.697 61.0038 157.067C59.7086 156.596 58.6657 155.853 57.9317 154.873C56.809 154.913 55.669 154.643 54.6419 154.11C52.885 153.204 51.6539 151.481 50.7954 149.754C48.9052 145.944 47.7871 141.85 47.3481 137.629C46.9156 133.472 47.5322 129.336 47.967 125.203" fill="#2D3958"/>
<path fill-rule="evenodd" clip-rule="evenodd" d="M96.2656 134.043C97.8998 134.515 99.6538 134.557 101.32 134.07C102.83 133.628 104.382 132.655 105.494 131.368C106.481 130.224 107.121 128.835 107.096 127.352C107.093 127.182 107.032 127.041 106.939 126.931C106.838 126.813 106.698 126.732 106.547 126.697C106.392 126.661 106.229 126.673 106.089 126.737C105.963 126.794 105.855 126.891 105.788 127.033C105.617 127.256 105.446 127.477 105.276 127.691C103.901 129.382 102.571 130.646 100.505 131.1C99.3838 131.346 98.2641 131.237 97.2369 130.861C96.1372 130.459 95.1432 129.753 94.3642 128.849C94.0122 128.44 93.5966 128.274 93.1902 128.271C92.7297 128.268 92.2745 128.481 91.9315 128.822C91.5945 129.157 91.3688 129.613 91.3483 130.089C91.3303 130.507 91.4672 130.944 91.8312 131.334C93.0302 132.617 94.5842 133.557 96.2656 134.043ZM96.3157 112.86C94.6405 113.875 92.0882 116.242 93.8902 118.758C96.0114 120.977 99.0654 118.433 100.57 117.282C101.966 116.391 103.534 118.684 102.239 119.725C91.3641 127.751 86.9508 113.125 95.4684 111.667C96.4062 111.506 96.7546 112.546 96.3157 112.86ZM111.986 108.394C112.524 108.05 113.157 107.933 113.859 108.251C114.408 108.5 115.37 109.328 116.039 110.418C116.497 111.164 116.822 112.038 116.755 112.949C116.739 113.161 116.817 113.317 116.941 113.432C117.039 113.523 117.18 113.59 117.345 113.611C117.486 113.629 117.644 113.613 117.772 113.573C118.015 113.497 118.144 113.34 118.193 113.211C118.662 111.97 118.46 110.585 117.934 109.336C117.225 107.649 115.938 106.237 115.094 105.782C113.65 105.002 111.947 104.966 110.502 105.76C109.271 106.436 108.502 107.528 107.736 108.64C107.574 108.876 107.412 109.111 107.245 109.342C106.911 109.804 106.878 110.262 107.007 110.655C107.151 111.09 107.516 111.458 107.974 111.65C108.397 111.828 108.888 111.853 109.322 111.67C109.689 111.516 110.025 111.215 110.238 110.705C110.597 109.846 111.195 108.898 111.986 108.394V108.394ZM84.6419 110.305C85.0107 110.497 85.2991 110.555 85.7082 110.432C85.9344 110.365 86.1579 110.235 86.333 110.06C86.5064 109.887 86.6316 109.672 86.6802 109.434C86.7999 108.845 87.123 108.294 87.5835 107.935C87.977 107.628 88.4738 107.465 89.0249 107.557C89.6195 107.656 90.186 108.036 90.5761 108.484C90.7065 108.634 90.8088 108.804 90.9115 108.974C91.1038 109.29 91.2906 109.584 91.5557 109.816C91.6562 109.905 91.8077 109.966 91.9544 109.966C92.014 109.966 92.0745 109.956 92.1321 109.938C92.7239 109.346 92.8378 108.897 92.8187 108.452C92.7987 107.984 92.6139 107.511 92.3153 107.07C91.6148 106.035 90.2849 105.186 89.3874 104.993C88.1584 104.73 86.9378 105.046 85.9592 105.73C84.9522 106.435 84.2061 107.528 83.9735 108.76C83.9175 109.056 83.9413 109.377 84.0547 109.654C84.1654 109.926 84.3584 110.158 84.6419 110.305ZM109.275 97.3552C110.013 98.0716 110.886 98.1825 111.769 98.2812C112.26 98.3366 112.651 98.3812 113.037 98.4679C114.096 98.7063 115.144 99.0654 116.099 99.5826C117.098 100.123 118.187 100.775 118.97 101.61C119.156 101.809 119.331 102.018 119.507 102.227C119.667 102.417 119.822 102.601 119.985 102.778C120.172 102.981 120.349 103.194 120.525 103.406C120.635 103.586 120.656 103.63 120.678 103.676C120.711 103.745 120.75 103.822 120.794 103.905C120.854 104.018 120.924 104.142 120.998 104.255C121.121 104.46 121.187 104.517 121.244 104.542C121.338 104.584 121.428 104.605 121.515 104.594C121.597 104.583 121.673 104.544 121.749 104.48C122.128 104.161 122.24 103.638 122.228 103.082C122.211 102.239 121.899 101.306 121.611 100.732C120.943 99.3984 120.015 98.0123 118.9 97.0171C117.628 95.8811 116.236 95.0212 114.637 94.4286C113.643 94.0602 112.492 93.722 111.41 93.7648C110.631 93.7955 109.887 94.0264 109.272 94.603C108.895 94.957 108.714 95.4605 108.714 95.9636C108.714 96.4768 108.902 96.993 109.275 97.3552ZM83.1416 103.915C83.1886 103.992 83.2535 104.045 83.3257 104.076C83.4014 104.11 83.486 104.119 83.5671 104.105C83.6479 104.092 83.7247 104.055 83.7856 104C83.8439 103.946 83.8884 103.875 83.9083 103.788C84.398 101.644 85.3488 100.049 87.3783 99.0205C88.3767 98.5145 89.5247 98.193 90.6114 97.9366C90.9272 97.8621 91.2609 97.8139 91.597 97.765C92.6502 97.6117 93.711 97.4361 94.3977 96.5874C94.8114 96.0762 94.985 95.4225 94.8868 94.8245C94.7944 94.2616 94.4644 93.7454 93.8645 93.436C92.371 92.6663 90.5151 93.4216 89.0069 94.0651C88.8951 94.1128 88.7852 94.1597 88.6778 94.2049C87.2029 94.8255 85.8577 95.6446 84.752 96.8162C83.8746 97.7456 83.0618 99.1195 82.7344 100.533C82.462 101.709 82.526 102.909 83.1416 103.915Z" fill="#2D3958"/>
</svg>
